<svg xmlns="http://www.w3.org/2000/svg" version="1.1" xmlns:xlink="http://www.w3.org/1999/xlink" xmlns:svgjs="http://svgjs.dev/svgjs" width="100%" height="100%" viewBox="0 0 1000 600"><rect width="1000" height="600" x="0" y="0" fill="#533549"/><g><rect width="333.3333333333333" height="333.3333333333333" y="174.98079277832514" fill="#f6b042" transform="matrix(0.8182846622245279,0,0,0.8182846622245278,0,20.43512092811723)" x="152.75857543945312"/><path d="M287.06545446883143 416.64746095845925L266.2920182939155 416.64746095845925L266.2920182939155 266.64745910478973L372.5584703056566 266.64745910478973L372.5584703056566 284.5660663316909L287.06545446883143 284.5660663316909L287.06545446883143 332.6729711578121L364.90509908331916 332.6729711578121L364.90509908331916 350.3789847396484L287.06545446883143 350.3789847396484L287.06545446883143 416.64746095845925Z " fill="#533549" transform="matrix(0.8182846622245279,0,0,0.8182846622245278,0,20.43512092811723)"/><path d="M585.1710982919244 386.4909158164722L569.4252428232786 386.4909158164722L569.4252428232786 272.79386879945287L649.9731204326226 272.79386879945287L649.9731204326226 286.3758201539864L585.1710982919244 286.3758201539864L585.1710982919244 322.8399065024292L644.1720157862795 322.8399065024292L644.1720157862795 336.260716061231L585.1710982919244 336.260716061231L585.1710982919244 386.4909158164722ZM682.6388644531025 386.4909158164722L668.0440218111123 386.4909158164722L668.0440218111123 299.313204325593L679.8073728995305 299.313204325593L681.1425477784505 313.7238849153185L682.293560605106 313.7238849153185Q683.6287354840263 309.58023873935906 685.9537813938703 305.85095718099564Q688.278827303714 302.12167562263215 692.2383114274087 299.72756894318894Q696.2208158076362 297.3104420072126 702.0219204539794 297.3104420072126L702.0219204539794 297.3104420072126Q704.5081081595551 297.3104420072126 706.5799312475347 297.7248066248086Q708.6517543355144 298.13917124240453 709.6416253664381 298.64561688613287L709.6416253664381 298.64561688613287L709.6416253664381 312.06642644493473L704.1858245680914 312.06642644493473Q698.5458617174802 312.06642644493473 694.4942965676532 313.97710773718273Q690.419711161293 315.8877890294306 687.7723816599857 319.36384776592996Q685.1250521586783 322.8399065024292 683.8819583058905 327.6511401178487Q682.6388644531025 332.4623737332683 682.6388644531025 337.91817453161474L682.6388644531025 337.91817453161474L682.6388644531025 386.4909158164722ZM743.2972404178417 388.4706578783195L743.2972404178417 388.4706578783195Q738.486006802422 388.4706578783195 733.6747731870025 387.31964505166405Q728.8865598281161 386.1686322250087 724.7429136521569 383.49828246716817Q720.5992674761974 380.8509529658608 718.1130797706217 376.1318003765737Q715.6268920650461 371.41264778728663 715.6268920650461 364.27636826202314L715.6268920650461 364.27636826202314Q715.6268920650461 355.3214884706443 719.9316800367374 349.52038382430106Q724.2364680084283 343.71927917795796 731.9482539470196 340.4964432633229Q739.6600398856106 337.2736073486878 750.2493578908402 336.0305134958999Q760.8616961526029 334.7874196431122 773.2926346804811 334.7874196431122L773.2926346804811 334.7874196431122L773.2926346804811 324.8426688208096Q773.2926346804811 320.0314352053901 771.6351762100974 316.55537646889076Q769.9777177397136 313.05629747585834 765.7650107941549 311.16863644014353Q761.5292835920629 309.2579551478956 753.7484368838725 309.2579551478956L753.7484368838725 309.2579551478956Q746.2898737671458 309.2579551478956 741.893004769322 311.16863644014353Q737.4961357714985 313.05629747585834 735.7465962749823 316.04893082516236Q734.0200770349993 319.0415641744664 734.0200770349993 322.67876470669745L734.0200770349993 322.67876470669745L734.0200770349993 325.16495241227307L719.9316800367374 325.16495241227307Q719.7705382410054 324.3362231770812 719.7705382410054 323.5074939418893Q719.7705382410054 322.67876470669745 719.7705382410054 321.527751880042L719.7705382410054 321.527751880042Q719.7705382410054 313.56274311958674 724.144386982296 308.1760030908395Q728.5412559801196 302.7892630620923 736.5062647405748 300.0498525346525Q744.448253244497 297.3104420072126 754.7383079147962 297.3104420072126L754.7383079147962 297.3104420072126Q765.6729297680224 297.3104420072126 773.0394118586169 300.4642171522484Q780.4289142057444 303.61799229728416 784.1581957641079 309.4190969436273Q787.8874773224713 315.2202015899705 787.8874773224713 323.3463521461576L787.8874773224713 323.3463521461576L787.8874773224713 370.58391855209476Q787.8874773224713 373.7376936971305 789.3837939971233 374.98078754991826Q790.8570904152423 376.2238814027061 793.0209945293545 376.2238814027061L793.0209945293545 376.2238814027061L799.4896866151578 376.2238814027061L799.4896866151578 385.82332837701205Q797.1646407053138 386.81319940793566 794.3561694082748 387.5728678735283Q791.5246778547025 388.30951608258766 787.8874773224713 388.30951608258766L787.8874773224713 388.30951608258766Q783.5826893507804 388.30951608258766 780.7511977972081 386.5829968426046Q777.9427265001689 384.83345734608844 776.4464098255169 381.7717632271851Q774.9500931508649 378.71006910828174 774.4666677636696 374.88870652378586L774.4666677636696 374.88870652378586L773.2926346804811 374.88870652378586Q770.3230215877102 379.03235269974533 765.7650107941549 382.0940468186487Q761.2070000005995 385.1557409375519 755.567037149988 386.81319940793566Q749.9270742993767 388.4706578783195 743.2972404178417 388.4706578783195ZM746.9344409500727 376.2238814027061L746.9344409500727 376.2238814027061Q752.2521202092205 376.2238814027061 756.9712727985077 374.5664229323224Q761.6904253877947 372.90896446193864 765.3506461765589 369.8242500865022Q768.9878467087899 366.76255596759887 771.1517508229019 362.45776799590766Q773.2926346804811 358.15298002421656 773.2926346804811 353.0194628173335L773.2926346804811 353.0194628173335L773.2926346804811 345.72204149633836Q759.8718251216792 345.72204149633836 750.433519943105 347.21835817099037Q740.9721945079978 348.6916545891092 735.9307583272471 352.5130171736051Q730.8663018899636 356.33437975810097 730.8663018899636 363.28649723109953L730.8663018899636 363.28649723109953Q730.8663018899636 367.7524269985225 732.8460439518108 370.58391855209476Q734.8488062701911 373.39238984913385 738.486006802422 374.79662549765345Q742.1462275911863 376.2238814027061 746.9344409500727 376.2238814027061ZM862.127804641744 416.6474518748434L826.4924475284931 416.6474518748434Q820.2079174949547 416.6474518748434 814.8902382358069 414.09220339966845Q809.595579233192 411.5139346679603 806.4418040881562 406.7027010525408Q803.2880289431205 401.9144876936544 803.2880289431205 395.2846538121194L803.2880289431205 395.2846538121194Q803.2880289431205 387.9872324911242 807.3626143494805 383.1759988757047Q811.4141794993075 378.3647652602852 817.054142349919 376.0397193504413L817.054142349919 376.0397193504413Q812.9104961739595 374.059977288594 810.5854502641157 370.49183752596224Q808.2604043542717 366.9236977633306 808.2604043542717 362.6189097916394L808.2604043542717 362.6189097916394Q808.2604043542717 356.8178051452963 812.4961315563637 352.83530076506867Q816.7318587584555 348.8758166413741 822.8552469962622 347.54064176245384L822.8552469962622 347.54064176245384Q817.2152841456507 343.90344123022277 813.9924482310157 338.171397353479Q810.7465920598474 332.4623737332683 810.7465920598474 325.48723600373654L810.7465920598474 325.48723600373654Q810.7465920598474 317.1999436518178 814.6600356704757 310.91541361827933Q818.550459024571 304.6078633282078 826.5845285546256 300.97066279597675Q834.6185980846801 297.3104420072126 846.2208073773666 297.3104420072126L846.2208073773666 297.3104420072126Q851.5384866365143 297.3104420072126 856.165558199669 298.0701104728052Q860.8156500193568 298.8067586818646 864.452850551588 300.4642171522484L864.452850551588 300.4642171522484Q870.253955197931 297.816887650941 873.1545075211027 293.67324147498164Q876.0550598442742 289.5295952990222 876.7226472837344 285.22480732733106L876.7226472837344 285.22480732733106L891.1333278734598 285.22480732733106Q891.1333278734598 290.1971827384823 888.9003629897484 294.5940517363059Q886.6673981060369 298.9679004775964 882.8460355215411 301.86845280076795Q879.0476931935782 304.76900512393956 873.5688721386987 305.7818964113963L873.5688721386987 305.7818964113963Q877.7125183146579 309.7413805350908 879.7843414026377 314.7137559462421Q881.8561644906174 319.68613135739344 881.8561644906174 325.48723600373654L881.8561644906174 325.48723600373654Q881.8561644906174 333.7745283556554 877.9657411365222 340.1741596718594Q874.075317782427 346.55077073153024 866.2714508177035 350.1879712637612Q858.490604109513 353.84819205252535 846.7272530210948 353.84819205252535L846.7272530210948 353.84819205252535L833.1222814100281 353.84819205252535Q828.6563516426054 353.84819205252535 825.8478803455662 355.5747112925084Q823.0163887919939 357.3242507890247 823.0163887919939 361.1225931169874L823.0163887919939 361.1225931169874Q823.0163887919939 364.437510057755 825.8478803455662 366.5093331457346Q828.6563516426054 368.58115623371435 833.1222814100281 368.58115623371435L833.1222814100281 368.58115623371435L868.5964967275472 368.58115623371435Q878.2189639583864 368.58115623371435 884.3423521961929 374.98078754991826Q890.4887606905327 381.3573986095892 890.4887606905327 391.3021494318917L890.4887606905327 391.3021494318917Q890.4887606905327 398.415408700622 886.9206209279012 404.14745257736587Q883.3524811652694 409.85647619757657 876.9758701055985 413.2634741644766Q870.5992590459277 416.6474518748434 862.127804641744 416.6474518748434L862.127804641744 416.6474518748434ZM830.6360937044526 405.55168822588547L830.6360937044526 405.55168822588547L861.9666628460122 405.55168822588547Q865.7880254305082 405.55168822588547 868.941800575544 403.98631078163413Q872.0725554640467 402.3979130808497 873.9141759866952 399.5894417838105Q875.7327762528107 396.75795023023824 875.7327762528107 393.44303328947075L875.7327762528107 393.44303328947075Q875.7327762528107 387.82609069539245 872.4178593120432 384.51117375462496Q869.1029423712757 381.19625681385736 864.1305669601245 381.19625681385736L864.1305669601245 381.19625681385736L830.6360937044526 381.19625681385736Q825.3414347018377 381.19625681385736 821.7042341696067 384.74137631995603Q818.0440133808427 388.30951608258766 818.0440133808427 393.44303328947075L818.0440133808427 393.44303328947075Q818.0440133808427 398.9218543443504 821.7042341696067 402.23677128511787Q825.3414347018377 405.55168822588547 830.6360937044526 405.55168822588547ZM846.3819491730983 342.8905499427661L846.3819491730983 342.8905499427661Q856.994287434861 342.8905499427661 862.127804641744 338.2634783796114Q867.2843421051602 333.61338655992364 867.2843421051602 325.48723600373654L867.2843421051602 325.48723600373654Q867.2843421051602 317.54524749981437 862.127804641744 312.8951556801266Q856.994287434861 308.2680841169719 846.3819491730983 308.2680841169719L846.3819491730983 308.2680841169719Q835.7926311678686 308.2680841169719 830.5670329348532 312.8951556801266Q825.3414347018377 317.54524749981437 825.3414347018377 325.48723600373654L825.3414347018377 325.48723600373654Q825.3414347018377 330.6437734671527 827.6664806116817 334.60325759084725Q829.9915265215254 338.5857619710749 834.6185980846801 340.749666085187Q839.2686899043679 342.8905499427661 846.3819491730983 342.8905499427661ZM918.4813926347917 386.4909158164722L903.9095702493346 386.4909158164722L903.9095702493346 266.6474603051131L918.4813926347917 266.6474603051131L918.4813926347917 386.4909158164722ZM976.9988847419518 388.4706578783195L976.9988847419518 388.4706578783195Q963.7392169788818 388.4706578783195 954.7152764179034 383.5903634933006Q945.6683156003921 378.71006910828174 940.9491630111052 368.58115623371435Q936.230010421818 358.47526361568003 936.230010421818 342.8905499427661L936.230010421818 342.8905499427661Q936.230010421818 327.1446944741204 940.9491630111052 317.1308828822185Q945.6683156003921 307.09405103378344 954.7152764179034 302.2137566487646Q963.7392169788818 297.3104420072126 976.9988847419518 297.3104420072126L976.9988847419518 297.3104420072126Q990.258552505022 297.3104420072126 999.2824930660001 302.2137566487646Q1008.3294538835114 307.09405103378344 1012.9565254466661 317.1308828822185Q1017.6066172663539 327.1446944741204 1017.6066172663539 342.8905499427661L1017.6066172663539 342.8905499427661Q1017.6066172663539 358.47526361568003 1012.9565254466661 368.58115623371435Q1008.3294538835114 378.71006910828174 999.2824930660001 383.5903634933006Q990.258552505022 388.4706578783195 976.9988847419518 388.4706578783195ZM976.9988847419518 376.2238814027061L976.9988847419518 376.2238814027061Q985.4473188896025 376.2238814027061 991.0872817402137 372.90896446193864Q996.7272445908252 369.59404752117103 999.6277969139967 362.54984902204006Q1002.5283492371684 355.5056505229091 1002.5283492371684 344.73217046541464L1002.5283492371684 344.73217046541464L1002.5283492371684 341.0719496766505Q1002.5283492371684 330.1373278234243 999.6277969139967 323.18521035042585Q996.7272445908252 316.2100726208941 991.0872817402137 312.8951556801266Q985.4473188896025 309.58023873935906 976.9988847419518 309.58023873935906L976.9988847419518 309.58023873935906Q968.5504505943013 309.58023873935906 962.8184067175575 312.8951556801266Q957.1093830973466 316.2100726208941 954.3009118003076 323.18521035042585Q951.4694202467354 330.1373278234243 951.4694202467354 341.0719496766505L951.4694202467354 341.0719496766505L951.4694202467354 344.73217046541464Q951.4694202467354 355.5056505229091 954.3009118003076 362.54984902204006Q957.1093830973466 369.59404752117103 962.8184067175575 372.90896446193864Q968.5504505943013 376.2238814027061 976.9988847419518 376.2238814027061ZM1056.050445676644 388.4706578783195L1056.050445676644 388.4706578783195Q1049.259469999377 388.4706578783195 1045.4611276714143 385.91540940314445Q1041.6397650869185 383.33714067143643 1039.9823066165345 379.12443372587774Q1038.324848146151 374.88870652378586 1038.324848146151 370.07747290836636L1038.324848146151 370.07747290836636L1038.324848146151 311.5830010577395L1027.044922444928 311.5830010577395L1027.044922444928 299.313204325593L1038.6471317376145 299.313204325593L1041.317481495455 274.9347526570319L1052.9196907881412 274.9347526570319L1052.9196907881412 299.313204325593L1069.3101134397139 299.313204325593L1069.3101134397139 311.5830010577395L1052.9196907881412 311.5830010577395L1052.9196907881412 367.9365890507873Q1052.9196907881412 372.08023522674677 1054.3929872062602 374.1520583147264Q1055.8893038809122 376.2238814027061 1060.0329500568714 376.2238814027061L1060.0329500568714 376.2238814027061L1069.3101134397139 376.2238814027061L1069.3101134397139 385.82332837701205Q1067.6526549693303 386.6520576122039 1065.3506293160194 387.1585032559323Q1063.0255834061757 387.6419286431275 1060.6084564701991 388.0562932607235Q1058.214349790756 388.4706578783195 1056.050445676644 388.4706578783195Z " fill="#f6b042" transform="matrix(0.8182846622245279,0,0,0.8182846622245278,0,20.43512092811723)"/></g></svg>